<mxfile host="app.diagrams.net" modified="2021-10-17T23:04:41.384Z" agent="5.0 (Windows NT 10.0; Win64; x64) AppleWebKit/537.36 (KHTML, like Gecko) Chrome/94.0.4606.81 Safari/537.36" etag="OkuuUCkk4xt9vPP9jbBu" version="15.5.4" type="github">
  <diagram id="C5RBs43oDa-KdzZeNtuy" name="Page-1">
    <mxGraphModel dx="1422" dy="1935" grid="1" gridSize="10" guides="1" tooltips="1" connect="1" arrows="1" fold="1" page="1" pageScale="1" pageWidth="827" pageHeight="1169" background="none" math="0" shadow="0">
      <root>
        <mxCell id="WIyWlLk6GJQsqaUBKTNV-0" />
        <mxCell id="WIyWlLk6GJQsqaUBKTNV-1" parent="WIyWlLk6GJQsqaUBKTNV-0" />
        <mxCell id="WIyWlLk6GJQsqaUBKTNV-5" value="No" style="edgeStyle=orthogonalEdgeStyle;rounded=0;html=1;jettySize=auto;orthogonalLoop=1;fontSize=11;endArrow=block;endFill=0;endSize=8;strokeWidth=1;shadow=0;labelBackgroundColor=none;entryX=0.5;entryY=0;entryDx=0;entryDy=0;exitX=1;exitY=0.5;exitDx=0;exitDy=0;" parent="WIyWlLk6GJQsqaUBKTNV-1" source="iECJdjRSzm937SN2_Tu6-41" target="iECJdjRSzm937SN2_Tu6-8" edge="1">
          <mxGeometry y="10" relative="1" as="geometry">
            <mxPoint as="offset" />
            <mxPoint x="250" y="-160.00000000000023" as="sourcePoint" />
            <mxPoint x="558.75" y="-179" as="targetPoint" />
          </mxGeometry>
        </mxCell>
        <mxCell id="iECJdjRSzm937SN2_Tu6-3" value="n == 0" style="rhombus;whiteSpace=wrap;html=1;shadow=0;fontFamily=Helvetica;fontSize=12;align=center;strokeWidth=1;spacing=6;spacingTop=-4;" parent="WIyWlLk6GJQsqaUBKTNV-1" vertex="1">
          <mxGeometry x="140" y="-602" width="100" height="80" as="geometry" />
        </mxCell>
        <mxCell id="iECJdjRSzm937SN2_Tu6-7" style="edgeStyle=orthogonalEdgeStyle;rounded=0;orthogonalLoop=1;jettySize=auto;html=1;exitX=0.5;exitY=1;exitDx=0;exitDy=0;entryX=0.5;entryY=0;entryDx=0;entryDy=0;" parent="WIyWlLk6GJQsqaUBKTNV-1" source="iECJdjRSzm937SN2_Tu6-5" target="iECJdjRSzm937SN2_Tu6-42" edge="1">
          <mxGeometry relative="1" as="geometry">
            <mxPoint x="190" y="-840.0000000000001" as="targetPoint" />
          </mxGeometry>
        </mxCell>
        <mxCell id="iECJdjRSzm937SN2_Tu6-5" value="menu&lt;br&gt;[1] New Input&lt;br&gt;[2] Exit" style="shape=parallelogram;perimeter=parallelogramPerimeter;whiteSpace=wrap;html=1;fixedSize=1;" parent="WIyWlLk6GJQsqaUBKTNV-1" vertex="1">
          <mxGeometry x="130" y="-940" width="120" height="70" as="geometry" />
        </mxCell>
        <mxCell id="iECJdjRSzm937SN2_Tu6-8" value="characters&lt;br&gt;text&lt;br&gt;numbers" style="shape=document;whiteSpace=wrap;html=1;boundedLbl=1;" parent="WIyWlLk6GJQsqaUBKTNV-1" vertex="1">
          <mxGeometry x="270" y="-130" width="120" height="69" as="geometry" />
        </mxCell>
        <mxCell id="iECJdjRSzm937SN2_Tu6-11" style="edgeStyle=orthogonalEdgeStyle;rounded=0;orthogonalLoop=1;jettySize=auto;html=1;exitX=0.5;exitY=1;exitDx=0;exitDy=0;" parent="WIyWlLk6GJQsqaUBKTNV-1" source="iECJdjRSzm937SN2_Tu6-9" target="iECJdjRSzm937SN2_Tu6-38" edge="1">
          <mxGeometry relative="1" as="geometry">
            <mxPoint x="190" y="-682" as="targetPoint" />
          </mxGeometry>
        </mxCell>
        <mxCell id="iECJdjRSzm937SN2_Tu6-9" value="input" style="shape=parallelogram;perimeter=parallelogramPerimeter;whiteSpace=wrap;html=1;fixedSize=1;" parent="WIyWlLk6GJQsqaUBKTNV-1" vertex="1">
          <mxGeometry x="130" y="-760" width="120" height="40" as="geometry" />
        </mxCell>
        <mxCell id="iECJdjRSzm937SN2_Tu6-12" value="Yes" style="rounded=0;html=1;jettySize=auto;orthogonalLoop=1;fontSize=11;endArrow=block;endFill=0;endSize=8;strokeWidth=1;shadow=0;labelBackgroundColor=none;edgeStyle=orthogonalEdgeStyle;exitX=0.5;exitY=1;exitDx=0;exitDy=0;entryX=0.5;entryY=0;entryDx=0;entryDy=0;" parent="WIyWlLk6GJQsqaUBKTNV-1" source="iECJdjRSzm937SN2_Tu6-3" target="iECJdjRSzm937SN2_Tu6-13" edge="1">
          <mxGeometry y="20" relative="1" as="geometry">
            <mxPoint as="offset" />
            <mxPoint x="211" y="-569" as="sourcePoint" />
            <mxPoint x="190" y="-473" as="targetPoint" />
            <Array as="points">
              <mxPoint x="190" y="-503" />
              <mxPoint x="310" y="-503" />
            </Array>
          </mxGeometry>
        </mxCell>
        <mxCell id="iECJdjRSzm937SN2_Tu6-13" value="input == text" style="rhombus;whiteSpace=wrap;html=1;" parent="WIyWlLk6GJQsqaUBKTNV-1" vertex="1">
          <mxGeometry x="250" y="-483" width="120" height="80" as="geometry" />
        </mxCell>
        <mxCell id="iECJdjRSzm937SN2_Tu6-15" value="No" style="edgeStyle=orthogonalEdgeStyle;rounded=0;html=1;jettySize=auto;orthogonalLoop=1;fontSize=11;endArrow=block;endFill=0;endSize=8;strokeWidth=1;shadow=0;labelBackgroundColor=none;entryX=0.5;entryY=0;entryDx=0;entryDy=0;" parent="WIyWlLk6GJQsqaUBKTNV-1" edge="1">
          <mxGeometry x="-0.648" y="-20" relative="1" as="geometry">
            <mxPoint as="offset" />
            <mxPoint x="190" y="-523" as="sourcePoint" />
            <mxPoint x="180" y="-192" as="targetPoint" />
            <Array as="points">
              <mxPoint x="190" y="-503" />
              <mxPoint x="60" y="-503" />
              <mxPoint x="60" y="-212" />
              <mxPoint x="180" y="-212" />
            </Array>
          </mxGeometry>
        </mxCell>
        <mxCell id="iECJdjRSzm937SN2_Tu6-16" value="Yes" style="rounded=0;html=1;jettySize=auto;orthogonalLoop=1;fontSize=11;endArrow=block;endFill=0;endSize=8;strokeWidth=1;shadow=0;labelBackgroundColor=none;edgeStyle=orthogonalEdgeStyle;exitX=1;exitY=0.5;exitDx=0;exitDy=0;entryX=0.5;entryY=0;entryDx=0;entryDy=0;" parent="WIyWlLk6GJQsqaUBKTNV-1" source="iECJdjRSzm937SN2_Tu6-13" target="iECJdjRSzm937SN2_Tu6-35" edge="1">
          <mxGeometry y="20" relative="1" as="geometry">
            <mxPoint as="offset" />
            <mxPoint x="200" y="-513" as="sourcePoint" />
            <mxPoint x="460" y="-410" as="targetPoint" />
          </mxGeometry>
        </mxCell>
        <mxCell id="iECJdjRSzm937SN2_Tu6-17" value="No" style="edgeStyle=orthogonalEdgeStyle;rounded=0;html=1;jettySize=auto;orthogonalLoop=1;fontSize=11;endArrow=block;endFill=0;endSize=8;strokeWidth=1;shadow=0;labelBackgroundColor=none;exitX=0;exitY=0.5;exitDx=0;exitDy=0;" parent="WIyWlLk6GJQsqaUBKTNV-1" source="iECJdjRSzm937SN2_Tu6-13" target="iECJdjRSzm937SN2_Tu6-18" edge="1">
          <mxGeometry y="10" relative="1" as="geometry">
            <mxPoint as="offset" />
            <mxPoint x="200" y="-513" as="sourcePoint" />
            <mxPoint x="150" y="-353" as="targetPoint" />
          </mxGeometry>
        </mxCell>
        <mxCell id="iECJdjRSzm937SN2_Tu6-18" value="input == number" style="rhombus;whiteSpace=wrap;html=1;" parent="WIyWlLk6GJQsqaUBKTNV-1" vertex="1">
          <mxGeometry x="150" y="-343" width="130" height="80" as="geometry" />
        </mxCell>
        <mxCell id="iECJdjRSzm937SN2_Tu6-19" value="Yes" style="rounded=0;html=1;jettySize=auto;orthogonalLoop=1;fontSize=11;endArrow=block;endFill=0;endSize=8;strokeWidth=1;shadow=0;labelBackgroundColor=none;edgeStyle=orthogonalEdgeStyle;exitX=1;exitY=0.5;exitDx=0;exitDy=0;entryX=0.5;entryY=0;entryDx=0;entryDy=0;" parent="WIyWlLk6GJQsqaUBKTNV-1" source="iECJdjRSzm937SN2_Tu6-18" target="iECJdjRSzm937SN2_Tu6-37" edge="1">
          <mxGeometry x="-0.4545" y="15" relative="1" as="geometry">
            <mxPoint as="offset" />
            <mxPoint x="380" y="-433" as="sourcePoint" />
            <mxPoint x="380" y="-293" as="targetPoint" />
          </mxGeometry>
        </mxCell>
        <mxCell id="iECJdjRSzm937SN2_Tu6-20" value="No" style="edgeStyle=orthogonalEdgeStyle;rounded=0;html=1;jettySize=auto;orthogonalLoop=1;fontSize=11;endArrow=block;endFill=0;endSize=8;strokeWidth=1;shadow=0;labelBackgroundColor=none;exitX=0;exitY=0.5;exitDx=0;exitDy=0;entryX=0.5;entryY=0;entryDx=0;entryDy=0;" parent="WIyWlLk6GJQsqaUBKTNV-1" source="iECJdjRSzm937SN2_Tu6-18" edge="1">
          <mxGeometry x="-0.7714" y="-15" relative="1" as="geometry">
            <mxPoint as="offset" />
            <mxPoint x="175" y="-333" as="sourcePoint" />
            <mxPoint x="180" y="-192" as="targetPoint" />
            <Array as="points">
              <mxPoint x="90" y="-303" />
              <mxPoint x="90" y="-212" />
              <mxPoint x="180" y="-212" />
            </Array>
          </mxGeometry>
        </mxCell>
        <mxCell id="iECJdjRSzm937SN2_Tu6-23" value="characters&lt;br&gt;text&lt;br&gt;numbers" style="shape=cylinder3;whiteSpace=wrap;html=1;boundedLbl=1;backgroundOutline=1;size=15;" parent="WIyWlLk6GJQsqaUBKTNV-1" vertex="1">
          <mxGeometry x="121.25" y="-1050" width="137.5" height="80" as="geometry" />
        </mxCell>
        <mxCell id="iECJdjRSzm937SN2_Tu6-24" value="" style="endArrow=classic;html=1;rounded=0;exitX=0.5;exitY=1;exitDx=0;exitDy=0;exitPerimeter=0;entryX=0.5;entryY=0;entryDx=0;entryDy=0;" parent="WIyWlLk6GJQsqaUBKTNV-1" source="iECJdjRSzm937SN2_Tu6-23" target="iECJdjRSzm937SN2_Tu6-5" edge="1">
          <mxGeometry width="50" height="50" relative="1" as="geometry">
            <mxPoint x="110" y="-735" as="sourcePoint" />
            <mxPoint x="160" y="-785" as="targetPoint" />
          </mxGeometry>
        </mxCell>
        <mxCell id="iECJdjRSzm937SN2_Tu6-25" value="END" style="ellipse;whiteSpace=wrap;html=1;" parent="WIyWlLk6GJQsqaUBKTNV-1" vertex="1">
          <mxGeometry x="414" y="-120.5" width="70" height="50" as="geometry" />
        </mxCell>
        <mxCell id="iECJdjRSzm937SN2_Tu6-26" value="" style="endArrow=classic;html=1;rounded=0;entryX=0;entryY=0.5;entryDx=0;entryDy=0;exitX=1;exitY=0.5;exitDx=0;exitDy=0;" parent="WIyWlLk6GJQsqaUBKTNV-1" source="iECJdjRSzm937SN2_Tu6-8" target="iECJdjRSzm937SN2_Tu6-25" edge="1">
          <mxGeometry width="50" height="50" relative="1" as="geometry">
            <mxPoint x="717.75" y="-186" as="sourcePoint" />
            <mxPoint x="428.75" y="-256" as="targetPoint" />
          </mxGeometry>
        </mxCell>
        <mxCell id="iECJdjRSzm937SN2_Tu6-27" value="START" style="ellipse;whiteSpace=wrap;html=1;" parent="WIyWlLk6GJQsqaUBKTNV-1" vertex="1">
          <mxGeometry x="155" y="-1120" width="70" height="40" as="geometry" />
        </mxCell>
        <mxCell id="iECJdjRSzm937SN2_Tu6-28" value="" style="endArrow=classic;html=1;rounded=0;exitX=0.5;exitY=1;exitDx=0;exitDy=0;" parent="WIyWlLk6GJQsqaUBKTNV-1" source="iECJdjRSzm937SN2_Tu6-27" edge="1">
          <mxGeometry width="50" height="50" relative="1" as="geometry">
            <mxPoint x="110" y="-990" as="sourcePoint" />
            <mxPoint x="190" y="-1050" as="targetPoint" />
          </mxGeometry>
        </mxCell>
        <mxCell id="iECJdjRSzm937SN2_Tu6-33" style="edgeStyle=orthogonalEdgeStyle;rounded=0;orthogonalLoop=1;jettySize=auto;html=1;entryX=0.5;entryY=0;entryDx=0;entryDy=0;exitX=0.5;exitY=1;exitDx=0;exitDy=0;" parent="WIyWlLk6GJQsqaUBKTNV-1" source="iECJdjRSzm937SN2_Tu6-38" target="iECJdjRSzm937SN2_Tu6-3" edge="1">
          <mxGeometry relative="1" as="geometry">
            <mxPoint x="190" y="-642" as="sourcePoint" />
            <mxPoint x="190" y="-586" as="targetPoint" />
          </mxGeometry>
        </mxCell>
        <mxCell id="iECJdjRSzm937SN2_Tu6-35" value="add_text&lt;br&gt;(input, df)" style="shape=hexagon;perimeter=hexagonPerimeter2;whiteSpace=wrap;html=1;fixedSize=1;" parent="WIyWlLk6GJQsqaUBKTNV-1" vertex="1">
          <mxGeometry x="370" y="-403" width="110" height="50" as="geometry" />
        </mxCell>
        <mxCell id="iECJdjRSzm937SN2_Tu6-37" value="add_number&lt;br&gt;(input, df)" style="shape=hexagon;perimeter=hexagonPerimeter2;whiteSpace=wrap;html=1;fixedSize=1;" parent="WIyWlLk6GJQsqaUBKTNV-1" vertex="1">
          <mxGeometry x="300" y="-263" width="110" height="50" as="geometry" />
        </mxCell>
        <mxCell id="iECJdjRSzm937SN2_Tu6-38" value="add_character&lt;br&gt;(input,&amp;nbsp;df)" style="shape=hexagon;perimeter=hexagonPerimeter2;whiteSpace=wrap;html=1;fixedSize=1;" parent="WIyWlLk6GJQsqaUBKTNV-1" vertex="1">
          <mxGeometry x="135" y="-682" width="110" height="50" as="geometry" />
        </mxCell>
        <mxCell id="iECJdjRSzm937SN2_Tu6-39" value="" style="endArrow=classic;html=1;rounded=0;entryX=0.5;entryY=0;entryDx=0;entryDy=0;exitX=0.5;exitY=1;exitDx=0;exitDy=0;" parent="WIyWlLk6GJQsqaUBKTNV-1" edge="1">
          <mxGeometry width="50" height="50" relative="1" as="geometry">
            <mxPoint x="425" y="-353" as="sourcePoint" />
            <mxPoint x="180" y="-192" as="targetPoint" />
            <Array as="points">
              <mxPoint x="425" y="-192" />
              <mxPoint x="320" y="-192" />
            </Array>
          </mxGeometry>
        </mxCell>
        <mxCell id="iECJdjRSzm937SN2_Tu6-40" value="" style="endArrow=classic;html=1;rounded=0;entryX=0.5;entryY=0;entryDx=0;entryDy=0;exitX=0.5;exitY=1;exitDx=0;exitDy=0;" parent="WIyWlLk6GJQsqaUBKTNV-1" source="iECJdjRSzm937SN2_Tu6-37" edge="1">
          <mxGeometry width="50" height="50" relative="1" as="geometry">
            <mxPoint x="190" y="-258" as="sourcePoint" />
            <mxPoint x="180" y="-192" as="targetPoint" />
            <Array as="points">
              <mxPoint x="355" y="-192" />
            </Array>
          </mxGeometry>
        </mxCell>
        <mxCell id="iECJdjRSzm937SN2_Tu6-41" value="menu != 2" style="rhombus;whiteSpace=wrap;html=1;shadow=0;fontFamily=Helvetica;fontSize=12;align=center;strokeWidth=1;spacing=6;spacingTop=-4;" parent="WIyWlLk6GJQsqaUBKTNV-1" vertex="1">
          <mxGeometry x="130" y="-190" width="100" height="80" as="geometry" />
        </mxCell>
        <mxCell id="iECJdjRSzm937SN2_Tu6-42" value="" style="ellipse;whiteSpace=wrap;html=1;aspect=fixed;" parent="WIyWlLk6GJQsqaUBKTNV-1" vertex="1">
          <mxGeometry x="180" y="-810" width="20" height="20" as="geometry" />
        </mxCell>
        <mxCell id="iECJdjRSzm937SN2_Tu6-43" value="" style="endArrow=classic;html=1;rounded=0;exitX=0.5;exitY=1;exitDx=0;exitDy=0;entryX=0.5;entryY=0;entryDx=0;entryDy=0;" parent="WIyWlLk6GJQsqaUBKTNV-1" source="iECJdjRSzm937SN2_Tu6-42" target="iECJdjRSzm937SN2_Tu6-9" edge="1">
          <mxGeometry width="50" height="50" relative="1" as="geometry">
            <mxPoint x="240" y="-510" as="sourcePoint" />
            <mxPoint x="290" y="-560" as="targetPoint" />
          </mxGeometry>
        </mxCell>
        <mxCell id="iECJdjRSzm937SN2_Tu6-45" value="Yes" style="rounded=0;html=1;jettySize=auto;orthogonalLoop=1;fontSize=11;endArrow=block;endFill=0;endSize=8;strokeWidth=1;shadow=0;labelBackgroundColor=none;edgeStyle=orthogonalEdgeStyle;entryX=0;entryY=0.5;entryDx=0;entryDy=0;exitX=0;exitY=0.5;exitDx=0;exitDy=0;" parent="WIyWlLk6GJQsqaUBKTNV-1" source="iECJdjRSzm937SN2_Tu6-41" target="iECJdjRSzm937SN2_Tu6-42" edge="1">
          <mxGeometry x="-0.9111" y="-10" relative="1" as="geometry">
            <mxPoint as="offset" />
            <mxPoint x="120" y="-146" as="sourcePoint" />
            <mxPoint x="365" y="-253" as="targetPoint" />
            <Array as="points">
              <mxPoint x="30" y="-150" />
              <mxPoint x="30" y="-800" />
            </Array>
          </mxGeometry>
        </mxCell>
        <mxCell id="iECJdjRSzm937SN2_Tu6-46" value="c = list of special characters&lt;br&gt;n = 0" style="rounded=0;whiteSpace=wrap;html=1;" parent="WIyWlLk6GJQsqaUBKTNV-1" vertex="1">
          <mxGeometry x="540" y="-1080" width="180" height="40" as="geometry" />
        </mxCell>
        <mxCell id="iECJdjRSzm937SN2_Tu6-47" value="START&lt;br&gt;add_character" style="ellipse;whiteSpace=wrap;html=1;" parent="WIyWlLk6GJQsqaUBKTNV-1" vertex="1">
          <mxGeometry x="572.5" y="-1140" width="115" height="40" as="geometry" />
        </mxCell>
        <mxCell id="iECJdjRSzm937SN2_Tu6-48" value="j &amp;lt; len(c)" style="rhombus;whiteSpace=wrap;html=1;" parent="WIyWlLk6GJQsqaUBKTNV-1" vertex="1">
          <mxGeometry x="580" y="-743" width="100" height="60" as="geometry" />
        </mxCell>
        <mxCell id="iECJdjRSzm937SN2_Tu6-49" value="i &amp;lt; len(input)" style="rhombus;whiteSpace=wrap;html=1;" parent="WIyWlLk6GJQsqaUBKTNV-1" vertex="1">
          <mxGeometry x="585" y="-823" width="90" height="50" as="geometry" />
        </mxCell>
        <mxCell id="iECJdjRSzm937SN2_Tu6-50" value="Yes" style="rounded=0;html=1;jettySize=auto;orthogonalLoop=1;fontSize=11;endArrow=block;endFill=0;endSize=8;strokeWidth=1;shadow=0;labelBackgroundColor=none;edgeStyle=orthogonalEdgeStyle;entryX=0;entryY=0.5;entryDx=0;entryDy=0;exitX=0;exitY=0.5;exitDx=0;exitDy=0;" parent="WIyWlLk6GJQsqaUBKTNV-1" source="iECJdjRSzm937SN2_Tu6-48" target="iECJdjRSzm937SN2_Tu6-61" edge="1">
          <mxGeometry x="-0.4545" y="15" relative="1" as="geometry">
            <mxPoint as="offset" />
            <mxPoint x="460" y="-670" as="sourcePoint" />
            <mxPoint x="755" y="-940" as="targetPoint" />
            <Array as="points">
              <mxPoint x="520" y="-722" />
              <mxPoint x="520" y="-1000" />
            </Array>
          </mxGeometry>
        </mxCell>
        <mxCell id="iECJdjRSzm937SN2_Tu6-51" value="Yes" style="rounded=0;html=1;jettySize=auto;orthogonalLoop=1;fontSize=11;endArrow=block;endFill=0;endSize=8;strokeWidth=1;shadow=0;labelBackgroundColor=none;edgeStyle=orthogonalEdgeStyle;exitX=0;exitY=0.5;exitDx=0;exitDy=0;entryX=0;entryY=0.5;entryDx=0;entryDy=0;" parent="WIyWlLk6GJQsqaUBKTNV-1" source="iECJdjRSzm937SN2_Tu6-49" target="iECJdjRSzm937SN2_Tu6-80" edge="1">
          <mxGeometry x="-0.4545" y="15" relative="1" as="geometry">
            <mxPoint as="offset" />
            <mxPoint x="757" y="-1019.9999999999999" as="sourcePoint" />
            <mxPoint x="799" y="-985.0000000000001" as="targetPoint" />
            <Array as="points">
              <mxPoint x="550" y="-798" />
              <mxPoint x="550" y="-950" />
            </Array>
          </mxGeometry>
        </mxCell>
        <mxCell id="iECJdjRSzm937SN2_Tu6-52" value="c[j] == input[i]" style="rhombus;whiteSpace=wrap;html=1;" parent="WIyWlLk6GJQsqaUBKTNV-1" vertex="1">
          <mxGeometry x="580" y="-910" width="100" height="60" as="geometry" />
        </mxCell>
        <mxCell id="iECJdjRSzm937SN2_Tu6-53" value="Yes" style="rounded=0;html=1;jettySize=auto;orthogonalLoop=1;fontSize=11;endArrow=block;endFill=0;endSize=8;strokeWidth=1;shadow=0;labelBackgroundColor=none;edgeStyle=orthogonalEdgeStyle;exitX=1;exitY=0.5;exitDx=0;exitDy=0;entryX=0.5;entryY=0;entryDx=0;entryDy=0;" parent="WIyWlLk6GJQsqaUBKTNV-1" source="iECJdjRSzm937SN2_Tu6-52" target="iECJdjRSzm937SN2_Tu6-54" edge="1">
          <mxGeometry x="-0.4545" y="15" relative="1" as="geometry">
            <mxPoint as="offset" />
            <mxPoint x="849" y="-955.0000000000001" as="sourcePoint" />
            <mxPoint x="889" y="-925.0000000000001" as="targetPoint" />
            <Array as="points">
              <mxPoint x="680" y="-920" />
            </Array>
          </mxGeometry>
        </mxCell>
        <mxCell id="iECJdjRSzm937SN2_Tu6-54" value="append c[j] to characters data frame&lt;br&gt;n = n+ 1&lt;br&gt;" style="rounded=0;whiteSpace=wrap;html=1;" parent="WIyWlLk6GJQsqaUBKTNV-1" vertex="1">
          <mxGeometry x="700" y="-890" width="120" height="50" as="geometry" />
        </mxCell>
        <mxCell id="iECJdjRSzm937SN2_Tu6-56" value="" style="endArrow=classic;html=1;rounded=0;exitX=0.5;exitY=1;exitDx=0;exitDy=0;entryX=0.5;entryY=0;entryDx=0;entryDy=0;" parent="WIyWlLk6GJQsqaUBKTNV-1" source="iECJdjRSzm937SN2_Tu6-47" target="iECJdjRSzm937SN2_Tu6-46" edge="1">
          <mxGeometry width="50" height="50" relative="1" as="geometry">
            <mxPoint x="410" y="-930" as="sourcePoint" />
            <mxPoint x="460" y="-980" as="targetPoint" />
          </mxGeometry>
        </mxCell>
        <mxCell id="iECJdjRSzm937SN2_Tu6-58" value="END" style="ellipse;whiteSpace=wrap;html=1;" parent="WIyWlLk6GJQsqaUBKTNV-1" vertex="1">
          <mxGeometry x="600" y="-653" width="60" height="30" as="geometry" />
        </mxCell>
        <mxCell id="iECJdjRSzm937SN2_Tu6-59" value="No" style="edgeStyle=orthogonalEdgeStyle;rounded=0;html=1;jettySize=auto;orthogonalLoop=1;fontSize=11;endArrow=block;endFill=0;endSize=8;strokeWidth=1;shadow=0;labelBackgroundColor=none;exitX=0.5;exitY=1;exitDx=0;exitDy=0;entryX=0.5;entryY=0;entryDx=0;entryDy=0;" parent="WIyWlLk6GJQsqaUBKTNV-1" source="iECJdjRSzm937SN2_Tu6-48" target="iECJdjRSzm937SN2_Tu6-58" edge="1">
          <mxGeometry y="10" relative="1" as="geometry">
            <mxPoint as="offset" />
            <mxPoint x="539.5" y="-723" as="sourcePoint" />
            <mxPoint x="504.5" y="-623" as="targetPoint" />
          </mxGeometry>
        </mxCell>
        <mxCell id="iECJdjRSzm937SN2_Tu6-60" value="" style="endArrow=classic;html=1;rounded=0;exitX=0.5;exitY=1;exitDx=0;exitDy=0;entryX=0.5;entryY=0;entryDx=0;entryDy=0;" parent="WIyWlLk6GJQsqaUBKTNV-1" source="iECJdjRSzm937SN2_Tu6-46" target="iECJdjRSzm937SN2_Tu6-61" edge="1">
          <mxGeometry width="50" height="50" relative="1" as="geometry">
            <mxPoint x="410" y="-920" as="sourcePoint" />
            <mxPoint x="460" y="-970" as="targetPoint" />
          </mxGeometry>
        </mxCell>
        <mxCell id="iECJdjRSzm937SN2_Tu6-64" value="" style="endArrow=classic;html=1;rounded=0;exitX=0.5;exitY=1;exitDx=0;exitDy=0;entryX=0.5;entryY=0;entryDx=0;entryDy=0;startArrow=none;" parent="WIyWlLk6GJQsqaUBKTNV-1" source="iECJdjRSzm937SN2_Tu6-61" target="iECJdjRSzm937SN2_Tu6-80" edge="1">
          <mxGeometry width="50" height="50" relative="1" as="geometry">
            <mxPoint x="630" y="-1000" as="sourcePoint" />
            <mxPoint x="630" y="-980" as="targetPoint" />
          </mxGeometry>
        </mxCell>
        <mxCell id="iECJdjRSzm937SN2_Tu6-66" value="No" style="edgeStyle=orthogonalEdgeStyle;rounded=0;html=1;jettySize=auto;orthogonalLoop=1;fontSize=11;endArrow=block;endFill=0;endSize=8;strokeWidth=1;shadow=0;labelBackgroundColor=none;exitX=0.5;exitY=1;exitDx=0;exitDy=0;" parent="WIyWlLk6GJQsqaUBKTNV-1" source="iECJdjRSzm937SN2_Tu6-49" target="iECJdjRSzm937SN2_Tu6-48" edge="1">
          <mxGeometry y="10" relative="1" as="geometry">
            <mxPoint as="offset" />
            <mxPoint x="584" y="-803" as="sourcePoint" />
            <mxPoint x="627" y="-843" as="targetPoint" />
          </mxGeometry>
        </mxCell>
        <mxCell id="iECJdjRSzm937SN2_Tu6-70" value="acumulado = acumulado + input" style="rounded=0;whiteSpace=wrap;html=1;" parent="WIyWlLk6GJQsqaUBKTNV-1" vertex="1">
          <mxGeometry x="543" y="-473" width="180" height="40" as="geometry" />
        </mxCell>
        <mxCell id="iECJdjRSzm937SN2_Tu6-71" value="START&lt;br&gt;add_number" style="ellipse;whiteSpace=wrap;html=1;" parent="WIyWlLk6GJQsqaUBKTNV-1" vertex="1">
          <mxGeometry x="575.5" y="-540" width="115" height="40" as="geometry" />
        </mxCell>
        <mxCell id="iECJdjRSzm937SN2_Tu6-72" value="append new row to numbers data frame" style="rounded=0;whiteSpace=wrap;html=1;" parent="WIyWlLk6GJQsqaUBKTNV-1" vertex="1">
          <mxGeometry x="543" y="-408" width="180" height="40" as="geometry" />
        </mxCell>
        <mxCell id="iECJdjRSzm937SN2_Tu6-73" value="" style="endArrow=classic;html=1;rounded=0;exitX=0.5;exitY=1;exitDx=0;exitDy=0;entryX=0.5;entryY=0;entryDx=0;entryDy=0;" parent="WIyWlLk6GJQsqaUBKTNV-1" source="iECJdjRSzm937SN2_Tu6-71" target="iECJdjRSzm937SN2_Tu6-70" edge="1">
          <mxGeometry width="50" height="50" relative="1" as="geometry">
            <mxPoint x="213" y="-413" as="sourcePoint" />
            <mxPoint x="263" y="-463" as="targetPoint" />
          </mxGeometry>
        </mxCell>
        <mxCell id="iECJdjRSzm937SN2_Tu6-74" value="" style="endArrow=classic;html=1;rounded=0;exitX=0.5;exitY=1;exitDx=0;exitDy=0;entryX=0.5;entryY=0;entryDx=0;entryDy=0;" parent="WIyWlLk6GJQsqaUBKTNV-1" source="iECJdjRSzm937SN2_Tu6-70" target="iECJdjRSzm937SN2_Tu6-72" edge="1">
          <mxGeometry width="50" height="50" relative="1" as="geometry">
            <mxPoint x="643" y="-490" as="sourcePoint" />
            <mxPoint x="643" y="-463" as="targetPoint" />
          </mxGeometry>
        </mxCell>
        <mxCell id="iECJdjRSzm937SN2_Tu6-75" value="inicio = input[0]&lt;br&gt;fin = input[len(input) - 1]" style="rounded=0;whiteSpace=wrap;html=1;" parent="WIyWlLk6GJQsqaUBKTNV-1" vertex="1">
          <mxGeometry x="543" y="-248" width="180" height="40" as="geometry" />
        </mxCell>
        <mxCell id="iECJdjRSzm937SN2_Tu6-76" value="START&lt;br&gt;add_text" style="ellipse;whiteSpace=wrap;html=1;" parent="WIyWlLk6GJQsqaUBKTNV-1" vertex="1">
          <mxGeometry x="575.5" y="-315" width="115" height="40" as="geometry" />
        </mxCell>
        <mxCell id="iECJdjRSzm937SN2_Tu6-77" value="append new row to text data frame" style="rounded=0;whiteSpace=wrap;html=1;" parent="WIyWlLk6GJQsqaUBKTNV-1" vertex="1">
          <mxGeometry x="543" y="-183" width="180" height="40" as="geometry" />
        </mxCell>
        <mxCell id="iECJdjRSzm937SN2_Tu6-78" value="" style="endArrow=classic;html=1;rounded=0;exitX=0.5;exitY=1;exitDx=0;exitDy=0;entryX=0.5;entryY=0;entryDx=0;entryDy=0;" parent="WIyWlLk6GJQsqaUBKTNV-1" source="iECJdjRSzm937SN2_Tu6-76" target="iECJdjRSzm937SN2_Tu6-75" edge="1">
          <mxGeometry width="50" height="50" relative="1" as="geometry">
            <mxPoint x="213" y="-188" as="sourcePoint" />
            <mxPoint x="263" y="-238" as="targetPoint" />
          </mxGeometry>
        </mxCell>
        <mxCell id="iECJdjRSzm937SN2_Tu6-79" value="" style="endArrow=classic;html=1;rounded=0;exitX=0.5;exitY=1;exitDx=0;exitDy=0;entryX=0.5;entryY=0;entryDx=0;entryDy=0;" parent="WIyWlLk6GJQsqaUBKTNV-1" source="iECJdjRSzm937SN2_Tu6-75" target="iECJdjRSzm937SN2_Tu6-77" edge="1">
          <mxGeometry width="50" height="50" relative="1" as="geometry">
            <mxPoint x="643" y="-265" as="sourcePoint" />
            <mxPoint x="643" y="-238" as="targetPoint" />
          </mxGeometry>
        </mxCell>
        <mxCell id="iECJdjRSzm937SN2_Tu6-80" value="" style="ellipse;whiteSpace=wrap;html=1;aspect=fixed;" parent="WIyWlLk6GJQsqaUBKTNV-1" vertex="1">
          <mxGeometry x="620" y="-960" width="20" height="20" as="geometry" />
        </mxCell>
        <mxCell id="iECJdjRSzm937SN2_Tu6-81" value="" style="endArrow=classic;html=1;rounded=0;exitX=0.5;exitY=1;exitDx=0;exitDy=0;entryX=0.5;entryY=0;entryDx=0;entryDy=0;exitPerimeter=0;" parent="WIyWlLk6GJQsqaUBKTNV-1" source="iECJdjRSzm937SN2_Tu6-80" target="iECJdjRSzm937SN2_Tu6-52" edge="1">
          <mxGeometry width="50" height="50" relative="1" as="geometry">
            <mxPoint x="640" y="-990" as="sourcePoint" />
            <mxPoint x="640" y="-970" as="targetPoint" />
          </mxGeometry>
        </mxCell>
        <mxCell id="iECJdjRSzm937SN2_Tu6-61" value="" style="ellipse;whiteSpace=wrap;html=1;aspect=fixed;" parent="WIyWlLk6GJQsqaUBKTNV-1" vertex="1">
          <mxGeometry x="620" y="-1010" width="20" height="20" as="geometry" />
        </mxCell>
        <mxCell id="iECJdjRSzm937SN2_Tu6-83" value="No" style="edgeStyle=orthogonalEdgeStyle;rounded=0;html=1;jettySize=auto;orthogonalLoop=1;fontSize=11;endArrow=block;endFill=0;endSize=8;strokeWidth=1;shadow=0;labelBackgroundColor=none;exitX=0.5;exitY=1;exitDx=0;exitDy=0;entryX=0.5;entryY=0;entryDx=0;entryDy=0;" parent="WIyWlLk6GJQsqaUBKTNV-1" source="iECJdjRSzm937SN2_Tu6-52" target="iECJdjRSzm937SN2_Tu6-49" edge="1">
          <mxGeometry y="10" relative="1" as="geometry">
            <mxPoint as="offset" />
            <mxPoint x="660" y="-774" as="sourcePoint" />
            <mxPoint x="630" y="-830" as="targetPoint" />
            <Array as="points" />
          </mxGeometry>
        </mxCell>
      </root>
    </mxGraphModel>
  </diagram>
</mxfile>
